<svg width="97" height="32" viewBox="0 0 97 32" fill="none" xmlns="http://www.w3.org/2000/svg">
<path d="M13.1939 1.70402L10.2059 1.59602C10.2059 2.06402 10.1699 2.71202 10.0979 3.36002C9.77393 6.45602 9.05393 12.288 9.05393 17.22C9.05393 21.792 10.0259 26.904 11.0699 30.108L13.6979 29.316C12.5819 25.932 11.5739 21.612 11.5739 16.932C11.5739 12 12.1859 6.31202 12.7979 3.28802C12.9059 2.78402 13.0499 2.13602 13.1939 1.70402ZM7.39793 6.13202C5.84993 6.13202 2.71793 5.91602 1.45793 5.70002L1.52993 8.40002C3.00593 8.47202 5.81393 8.61602 7.36193 8.61602C12.7259 8.61602 19.8179 8.07602 25.0019 7.17602L30.2379 1.09202C25.2699 2.20802 13.7339 6.13202 7.39793 6.13202ZM22.4099 10.38L19.5299 9.66002C19.4939 10.236 19.3139 11.208 19.1699 11.748C17.5139 17.58 14.5619 21.468 11.3579 24.276C9.05393 26.292 6.71393 27.3 4.91393 27.3C4.91393 28.776 3.58193 27.3 4.91393 27.3C4.91393 23.988 6.10193 17.832 10.1699 16.032C12.0059 15.204 14.6699 14.34 17.6939 14.34C23.0579 14.34 22.4099 17.544 22.4099 21.036C22.4099 25.68 21.98 24.8881 15.5 25.6081L16.5 30.072C24.852 28.74 28.8179 26.184 28.8179 21.036C28.8179 15.996 24.5339 12.036 17.7299 12.036C15.3899 12.036 12.4739 12.576 10.0619 13.512C4.73393 15.564 0.161926 20.64 0.161926 25.572C0.161926 28.632 2.03393 30.072 4.40993 30.072C6.96593 30.072 9.84593 28.74 12.1499 26.976C15.9299 24.06 19.5299 19.056 21.6539 12.396C21.8699 11.82 22.1939 10.848 22.4099 10.38Z" fill="#EA6C00"/>
<path d="M58.432 7.39202C58.432 6.09602 59.476 4.94403 60.808 4.94403C62.14 4.94403 63.256 6.09602 63.256 7.39202C63.256 8.72402 62.14 9.80402 60.808 9.80402C59.476 9.80402 58.432 8.72402 58.432 7.39202ZM54.878 4.62003C54.878 6.88803 58.576 11.496 60.808 11.496C63.076 11.496 65.878 6.88803 65.878 4.62003C65.878 2.35203 63.076 3.28802 60.808 3.28802C58.576 3.28802 54.878 2.35203 54.878 4.62003ZM47.704 9.69602L49.504 11.388C50.836 10.452 52.888 8.86802 53.752 8.14802L53.068 6.27603C50.908 4.69202 46.948 2.71202 44.176 1.59602L42.52 3.64802C45.292 4.76402 48.64 6.60003 50.224 7.86002C49.684 8.32802 48.64 9.08402 47.704 9.69602ZM40.756 26.904L41.152 29.856C42.772 30.18 44.752 30.432 47.056 30.432C49.648 30.432 53.248 29.46 53.248 25.032C53.248 21.756 50.872 18.588 47.488 15.06C46.66 14.16 45.724 13.188 44.86 12.252L41.152 14.124C42.124 14.952 44.824 15.996 45.616 16.824C47.596 19.02 50.224 22.26 50.224 24.708C50.224 27.048 48.208 27.696 46.552 27.696C44.32 27.696 42.592 27.408 40.756 26.904ZM61.528 28.236L64.192 26.796C63.076 23.592 60.34 18.444 57.892 15.528L55.516 16.86C58 19.668 60.52 24.816 61.528 28.236ZM41.98 21.216L40.288 19.056C38.236 21.324 38.866 20.516 35.878 22.1L37.378 24.672C40.87 22.584 39.892 23.376 41.98 21.216Z" fill="#EA6C00"/>
<path d="M80.156 1.09205L71.968 0.912048C71.896 1.92005 75.764 13.9441 75.62 15.0241C75.188 17.9761 75.62 12.324 75.62 15.744C75.62 18.0841 75.8 20.1 75.98 21.4681L78.788 21.252C78.536 19.452 78.536 18.192 78.716 16.824C79.148 12.108 83.324 5.55605 87.824 5.55605C91.604 5.55605 93.512 9.66005 93.512 15.348C93.512 24.384 86.636 22.9081 78.788 24.0961L81.308 31.3321C90.2 29.7121 96.5 25.2841 96.5 15.312C96.5 7.75205 93.044 2.92805 88.292 2.92805C83.72 2.92805 79.976 7.42805 78.5 11.136C78.716 8.61605 79.4 3.75605 80.156 1.09205Z" fill="#EA6C00"/>
</svg>
